<?xml version="1.0" encoding="utf-8"?>
<!-- Generator: Adobe Illustrator 16.0.0, SVG Export Plug-In . SVG Version: 6.00 Build 0)  -->
<!DOCTYPE svg PUBLIC "-//W3C//DTD SVG 1.1//EN" "http://www.w3.org/Graphics/SVG/1.1/DTD/svg11.dtd">
<svg version="1.1" id="Capa_1" xmlns="http://www.w3.org/2000/svg" xmlns:xlink="http://www.w3.org/1999/xlink" x="0px" y="0px"
	 width="296.934px" height="104px" viewBox="0 0 296.934 104" enable-background="new 0 0 296.934 104" xml:space="preserve">
<g>
	<g>
		<defs>
			<path id="SVGID_1_" d="M135.467,0.815h-0.011c-7.452,0-13.88,4.268-17.018,10.505L92.841,60.773
				c-2.86-5.084-7.417-9.082-12.914-11.228c6.139-4.44,10.133-11.674,10.133-19.841c0-9.458-5.371-17.654-13.227-21.711
				c-6.92-3.647-14.825-5.7-23.2-5.7H15.354c-7.875,0-14.235,6.365-14.235,14.222v71.243c0,7.855,6.36,14.223,14.235,14.223h13.823
				h27.575c7.983,0,15.579-1.65,22.475-4.604l2.622-1.269c0.15-0.07,0.293-0.149,0.432-0.221c2.488,4.12,6.997,6.896,12.18,6.896
				c5.755,0,10.722-3.417,12.956-8.351c1.113-2.604,3.625-4.448,6.601-4.587h42.896c2.975,0.139,5.484,1.982,6.601,4.587
				c2.23,4.934,7.201,8.351,12.956,8.351c7.867,0,14.225-6.375,14.225-14.208c0-2.554-0.655-4.944-1.837-6.999L152.496,11.32
				c-3.143-6.237-9.567-10.505-17.022-10.505H135.467z"/>
		</defs>
		<clipPath id="SVGID_2_">
			<use xlink:href="#SVGID_1_"  overflow="visible"/>
		</clipPath>
		
			<linearGradient id="SVGID_3_" gradientUnits="userSpaceOnUse" x1="-113" y1="301.5" x2="-112" y2="301.5" gradientTransform="matrix(0 -64.5537 64.5537 0 -19367.0039 -7198.7246)">
			<stop  offset="0" style="stop-color:#0FAEE8"/>
			<stop  offset="0.0303" style="stop-color:#20B2E4"/>
			<stop  offset="0.0901" style="stop-color:#4BBEDB"/>
			<stop  offset="0.1728" style="stop-color:#90D0CC"/>
			<stop  offset="0.2124" style="stop-color:#B4D9C4"/>
			<stop  offset="0.317" style="stop-color:#D1E3B6"/>
			<stop  offset="0.4164" style="stop-color:#F1EDA6"/>
			<stop  offset="0.5058" style="stop-color:#F2EA93"/>
			<stop  offset="0.6866" style="stop-color:#F5E163"/>
			<stop  offset="0.9404" style="stop-color:#F9D315"/>
			<stop  offset="1" style="stop-color:#FACF02"/>
			<stop  offset="1" style="stop-color:#FDD100"/>
		</linearGradient>
		<rect x="1.119" y="0.815" clip-path="url(#SVGID_2_)" fill="url(#SVGID_3_)" width="189.576" height="101.968"/>
	</g>
	<g>
		<path fill="#3C3C3A" d="M173.938,32.615h-4.89l-7.851-23.897h4.82l5.475,18.422l5.441-18.422h4.82L173.938,32.615z"/>
	</g>
	<g>
		<path fill="#3C3C3A" d="M198.419,32.615h-4.339v-1.894c-0.688,0.735-1.492,1.297-2.41,1.688s-1.928,0.585-3.03,0.585
			c-1.147,0-2.232-0.236-3.254-0.706s-1.917-1.119-2.686-1.945c-0.77-0.827-1.377-1.802-1.825-2.927
			c-0.447-1.125-0.671-2.342-0.671-3.65c0-1.308,0.224-2.531,0.671-3.667c0.448-1.136,1.056-2.118,1.825-2.944
			c0.769-0.827,1.664-1.475,2.686-1.946c1.021-0.47,2.106-0.706,3.254-0.706c1.103,0,2.112,0.195,3.03,0.585s1.722,0.953,2.41,1.687
			v-1.894h4.339V32.615z M193.513,21.803c-0.241-0.62-0.568-1.159-0.981-1.619c-0.413-0.458-0.896-0.82-1.446-1.084
			c-0.551-0.264-1.137-0.396-1.756-0.396c-0.62,0-1.205,0.132-1.757,0.396c-0.551,0.264-1.032,0.62-1.446,1.067
			c-0.413,0.448-0.74,0.987-0.98,1.619c-0.241,0.631-0.362,1.303-0.362,2.014c0,0.712,0.121,1.372,0.362,1.98
			c0.24,0.608,0.567,1.136,0.98,1.584c0.414,0.448,0.896,0.798,1.446,1.05c0.552,0.252,1.137,0.378,1.757,0.378
			c0.619,0,1.205-0.132,1.756-0.396c0.551-0.264,1.033-0.62,1.446-1.067s0.74-0.975,0.981-1.584
			c0.241-0.608,0.361-1.257,0.361-1.945C193.874,23.089,193.754,22.423,193.513,21.803z"/>
	</g>
	<g>
		<path fill="#3C3C3A" d="M229.135,32.615h-4.546V22.251c0-0.252-0.034-0.58-0.104-0.981c-0.068-0.401-0.218-0.792-0.447-1.171
			s-0.563-0.7-0.998-0.964c-0.437-0.264-1.022-0.396-1.757-0.396c-1.032,0-1.865,0.333-2.496,0.999
			c-0.632,0.666-0.947,1.503-0.947,2.514v10.364h-4.579V22.251c0-0.252-0.034-0.58-0.104-0.981
			c-0.068-0.401-0.213-0.792-0.431-1.171s-0.545-0.7-0.981-0.964c-0.436-0.264-1.032-0.396-1.79-0.396
			c-1.011,0-1.831,0.333-2.462,0.999c-0.632,0.666-0.947,1.503-0.947,2.514v10.364h-4.579V14.882h4.373v1.722
			c0.551-0.666,1.21-1.193,1.979-1.584c0.769-0.39,1.636-0.585,2.6-0.585c1.102,0,2.105,0.218,3.013,0.654s1.67,1.056,2.29,1.859
			c0.643-0.78,1.417-1.395,2.324-1.842s1.934-0.671,3.082-0.671c1.193,0,2.255,0.189,3.185,0.568
			c0.93,0.379,1.716,0.913,2.359,1.601c0.643,0.689,1.13,1.51,1.463,2.462s0.5,2.014,0.5,3.185V32.615z"/>
	</g>
	<g>
		<path fill="#3C3C3A" d="M243.803,15.14c1.079,0.471,2.026,1.125,2.841,1.963c0.814,0.838,1.458,1.825,1.929,2.961
			c0.47,1.136,0.706,2.37,0.706,3.701c0,1.332-0.236,2.56-0.706,3.685c-0.471,1.125-1.114,2.101-1.929,2.927
			c-0.814,0.827-1.762,1.476-2.841,1.946s-2.238,0.706-3.478,0.706s-2.399-0.235-3.478-0.706c-1.079-0.47-2.021-1.119-2.823-1.946
			c-0.805-0.826-1.441-1.802-1.911-2.927c-0.471-1.125-0.706-2.353-0.706-3.685c0-1.331,0.235-2.565,0.706-3.701
			c0.47-1.137,1.106-2.123,1.911-2.961c0.803-0.838,1.744-1.492,2.823-1.963c1.078-0.47,2.238-0.706,3.478-0.706
			S242.724,14.67,243.803,15.14z M242.013,28.5c0.527-0.241,0.992-0.585,1.395-1.033c0.401-0.447,0.717-0.981,0.946-1.601
			c0.229-0.62,0.345-1.309,0.345-2.066s-0.115-1.458-0.345-2.101c-0.229-0.642-0.545-1.193-0.946-1.653
			c-0.402-0.459-0.867-0.814-1.395-1.067c-0.528-0.252-1.091-0.378-1.688-0.378s-1.165,0.126-1.704,0.378
			c-0.54,0.253-1.005,0.608-1.395,1.067c-0.391,0.459-0.701,1.011-0.93,1.653c-0.23,0.643-0.345,1.343-0.345,2.101
			s0.114,1.446,0.345,2.066c0.229,0.62,0.539,1.154,0.93,1.601c0.39,0.448,0.854,0.792,1.395,1.033
			c0.539,0.241,1.107,0.361,1.704,0.361S241.484,28.742,242.013,28.5z"/>
		<path fill="#3C3C3A" d="M266.115,29.447c-0.391,0.735-0.93,1.366-1.618,1.894c-0.688,0.528-1.51,0.941-2.462,1.239
			c-0.953,0.298-1.992,0.448-3.116,0.448c-1.125,0-2.169-0.144-3.134-0.43c-0.964-0.287-1.813-0.7-2.548-1.24
			c-0.735-0.539-1.338-1.188-1.808-1.945c-0.471-0.758-0.774-1.619-0.913-2.583h4.614c0.16,0.391,0.385,0.711,0.672,0.964
			c0.287,0.253,0.603,0.465,0.947,0.637c0.344,0.172,0.705,0.292,1.084,0.361s0.74,0.104,1.085,0.104
			c0.918,0,1.682-0.132,2.29-0.396c0.607-0.264,0.912-0.66,0.912-1.188c0-0.252-0.046-0.47-0.138-0.654
			c-0.092-0.184-0.275-0.344-0.551-0.482s-0.654-0.27-1.137-0.396c-0.481-0.126-1.113-0.247-1.894-0.362
			c-0.804-0.114-1.636-0.27-2.496-0.465c-0.861-0.194-1.659-0.487-2.394-0.878c-0.734-0.39-1.338-0.9-1.808-1.532
			c-0.471-0.631-0.706-1.44-0.706-2.428c0-0.688,0.155-1.377,0.465-2.066c0.31-0.688,0.774-1.296,1.395-1.825
			c0.62-0.528,1.406-0.958,2.358-1.292c0.953-0.333,2.072-0.499,3.357-0.499c1.01,0,1.951,0.132,2.824,0.396
			c0.872,0.264,1.646,0.637,2.324,1.119c0.677,0.482,1.233,1.067,1.67,1.756c0.436,0.688,0.723,1.446,0.86,2.272h-4.717
			c-0.138-0.413-0.454-0.763-0.947-1.05c-0.494-0.287-1.165-0.43-2.015-0.43c-1.056,0-1.813,0.155-2.272,0.465
			s-0.688,0.625-0.688,0.947c0,0.459,0.31,0.792,0.93,0.999s1.48,0.402,2.582,0.585c1.103,0.184,2.118,0.396,3.048,0.637
			c0.93,0.241,1.727,0.563,2.393,0.964c0.666,0.402,1.188,0.918,1.567,1.55s0.568,1.429,0.568,2.393
			C266.701,27.91,266.506,28.713,266.115,29.447z"/>
	</g>
	<g>
		<path fill="#3C3C3A" d="M201.794,57.252c-0.344,0.861-0.844,1.596-1.498,2.204c-0.654,0.608-1.446,1.08-2.376,1.412
			c-0.93,0.333-1.968,0.5-3.116,0.5h-11.638V37.47h11.019c2.41,0,4.212,0.574,5.406,1.722c1.193,1.148,1.79,2.732,1.79,4.752
			c0,1.01-0.206,1.911-0.62,2.703c-0.413,0.792-0.987,1.452-1.722,1.98c1.033,0.528,1.837,1.269,2.411,2.221
			c0.573,0.953,0.86,2.118,0.86,3.495C202.311,55.422,202.139,56.392,201.794,57.252z M187.711,41.603v5.268h6.474
			c0.78,0,1.44-0.241,1.979-0.723c0.539-0.482,0.81-1.125,0.81-1.928c0-0.803-0.247-1.44-0.74-1.911
			c-0.494-0.47-1.177-0.706-2.049-0.706H187.711z M196.75,51.846c-0.608-0.539-1.498-0.809-2.669-0.809h-6.37v6.164h6.474
			c0.436,0,0.86-0.046,1.273-0.138c0.413-0.091,0.786-0.258,1.119-0.499c0.333-0.241,0.597-0.551,0.792-0.93
			c0.195-0.378,0.293-0.866,0.293-1.463C197.662,53.161,197.357,52.386,196.75,51.846z"/>
	</g>
	<g>
		<path fill="#3C3C3A" d="M220.146,61.367h-4.339v-1.618c-0.551,0.643-1.205,1.142-1.962,1.498
			c-0.758,0.356-1.607,0.534-2.549,0.534c-1.056,0-2.014-0.189-2.875-0.568c-0.86-0.379-1.596-0.907-2.204-1.584
			c-0.608-0.677-1.079-1.492-1.411-2.445c-0.333-0.952-0.499-2.015-0.499-3.185V43.634h4.545v10.365
			c0,0.253,0.034,0.574,0.104,0.964c0.068,0.391,0.218,0.775,0.447,1.154c0.229,0.378,0.563,0.7,0.999,0.964
			c0.436,0.264,1.021,0.396,1.756,0.396c1.033,0,1.864-0.333,2.496-0.999c0.631-0.666,0.947-1.492,0.947-2.479V43.634h4.545V61.367z
			"/>
		<path fill="#3C3C3A" d="M227.24,54.274c0.298,1.102,0.843,1.963,1.635,2.583s1.728,0.93,2.807,0.93c0.758,0,1.475-0.167,2.152-0.5
			c0.677-0.333,1.21-0.854,1.601-1.566h4.855c-0.528,1.813-1.532,3.277-3.013,4.39c-1.48,1.114-3.335,1.67-5.562,1.67
			c-1.239,0-2.41-0.241-3.512-0.723s-2.066-1.142-2.893-1.98c-0.826-0.837-1.48-1.819-1.963-2.944
			c-0.481-1.125-0.723-2.33-0.723-3.616c0-1.285,0.241-2.496,0.723-3.632c0.482-1.137,1.137-2.123,1.963-2.961
			c0.826-0.838,1.791-1.503,2.893-1.997s2.272-0.74,3.512-0.74c1.309,0,2.543,0.247,3.702,0.74s2.152,1.217,2.979,2.169
			s1.446,2.118,1.859,3.495c0.413,1.377,0.539,2.939,0.379,4.683H227.24z M236.124,50.555c-0.275-1.033-0.81-1.854-1.602-2.462
			c-0.792-0.608-1.739-0.913-2.841-0.913c-1.033,0-1.94,0.305-2.72,0.913c-0.781,0.608-1.332,1.429-1.653,2.462H236.124z"/>
	</g>
	<g>
		<path fill="#3C3C3A" d="M258.954,61.367h-4.545V51.003c0-0.252-0.034-0.58-0.104-0.981c-0.068-0.401-0.213-0.792-0.431-1.171
			s-0.545-0.7-0.981-0.964c-0.436-0.264-1.032-0.396-1.79-0.396c-1.033,0-1.865,0.333-2.496,0.999
			c-0.632,0.666-0.947,1.503-0.947,2.514v10.364h-4.545V43.634h4.338v1.722c0.574-0.666,1.24-1.193,1.997-1.584
			c0.758-0.39,1.619-0.585,2.583-0.585c1.033,0,1.979,0.189,2.841,0.568c0.86,0.379,1.589,0.907,2.187,1.584
			c0.597,0.677,1.062,1.498,1.395,2.462c0.332,0.964,0.499,2.032,0.499,3.203V61.367z"/>
		<path fill="#3C3C3A" d="M273.691,43.892c1.079,0.471,2.026,1.125,2.841,1.963c0.814,0.838,1.458,1.825,1.929,2.961
			c0.47,1.136,0.706,2.37,0.706,3.701c0,1.332-0.236,2.56-0.706,3.685c-0.471,1.125-1.114,2.101-1.929,2.927
			c-0.814,0.827-1.762,1.476-2.841,1.946s-2.238,0.706-3.478,0.706s-2.399-0.235-3.478-0.706c-1.079-0.47-2.021-1.119-2.823-1.946
			c-0.805-0.826-1.441-1.802-1.911-2.927c-0.471-1.125-0.706-2.353-0.706-3.685c0-1.331,0.235-2.565,0.706-3.701
			c0.47-1.137,1.106-2.123,1.911-2.961c0.803-0.838,1.744-1.492,2.823-1.963c1.078-0.47,2.238-0.706,3.478-0.706
			S272.612,43.422,273.691,43.892z M271.901,57.252c0.527-0.241,0.992-0.585,1.395-1.033c0.401-0.447,0.717-0.981,0.946-1.601
			c0.229-0.62,0.345-1.309,0.345-2.066s-0.115-1.458-0.345-2.101c-0.229-0.642-0.545-1.193-0.946-1.653
			c-0.402-0.459-0.867-0.814-1.395-1.067c-0.528-0.252-1.091-0.378-1.688-0.378s-1.165,0.126-1.704,0.378
			c-0.54,0.253-1.005,0.608-1.395,1.067c-0.391,0.459-0.701,1.011-0.93,1.653c-0.23,0.643-0.345,1.343-0.345,2.101
			s0.114,1.446,0.345,2.066c0.229,0.62,0.539,1.154,0.93,1.601c0.39,0.448,0.854,0.792,1.395,1.033
			c0.539,0.241,1.107,0.361,1.704,0.361S271.373,57.494,271.901,57.252z"/>
	</g>
	<g>
		<path fill="#3C3C3A" d="M295.935,58.199c-0.391,0.735-0.93,1.366-1.618,1.894c-0.688,0.528-1.51,0.941-2.462,1.239
			c-0.953,0.298-1.992,0.448-3.116,0.448c-1.125,0-2.169-0.144-3.134-0.43c-0.964-0.287-1.813-0.7-2.548-1.24
			c-0.735-0.539-1.338-1.188-1.808-1.945c-0.471-0.758-0.774-1.619-0.913-2.583h4.614c0.16,0.391,0.385,0.711,0.672,0.964
			c0.287,0.253,0.603,0.465,0.947,0.637c0.344,0.172,0.705,0.292,1.084,0.361s0.74,0.104,1.085,0.104
			c0.918,0,1.682-0.132,2.29-0.396c0.607-0.264,0.912-0.66,0.912-1.188c0-0.252-0.046-0.47-0.138-0.654
			c-0.092-0.184-0.275-0.344-0.551-0.482s-0.654-0.27-1.137-0.396c-0.481-0.126-1.113-0.247-1.894-0.362
			c-0.804-0.114-1.636-0.27-2.496-0.465c-0.861-0.194-1.659-0.487-2.394-0.878c-0.734-0.39-1.338-0.9-1.808-1.532
			c-0.471-0.631-0.706-1.44-0.706-2.428c0-0.688,0.155-1.377,0.465-2.066c0.31-0.688,0.774-1.296,1.395-1.825
			c0.62-0.528,1.406-0.958,2.358-1.292c0.953-0.333,2.072-0.499,3.357-0.499c1.01,0,1.951,0.132,2.824,0.396
			c0.872,0.264,1.646,0.637,2.324,1.119c0.677,0.482,1.233,1.067,1.67,1.756c0.436,0.688,0.723,1.446,0.86,2.272h-4.717
			c-0.138-0.413-0.454-0.763-0.947-1.05c-0.494-0.287-1.165-0.43-2.015-0.43c-1.056,0-1.813,0.155-2.272,0.465
			s-0.688,0.625-0.688,0.947c0,0.459,0.31,0.792,0.93,0.999s1.48,0.402,2.582,0.585c1.103,0.184,2.118,0.396,3.048,0.637
			c0.93,0.241,1.727,0.563,2.393,0.964c0.666,0.402,1.188,0.918,1.567,1.55s0.568,1.429,0.568,2.393
			C296.521,56.662,296.325,57.465,295.935,58.199z"/>
	</g>
	<g>
		<path fill="#3C3C3A" d="M207.476,85.333l-1.618,4.786h-4.82l8.332-23.896h5.751l8.333,23.896h-4.821l-1.618-4.786H207.476z
			 M212.228,71.284l-3.34,9.813h6.68L212.228,71.284z"/>
		<path fill="#3C3C3A" d="M229.892,70.458h-4.546v-4.235h4.546V70.458z M229.892,90.119h-4.546V72.386h4.546V90.119z"/>
		<path fill="#3C3C3A" d="M249.381,80.65h-4.545v-0.896c0-0.253-0.034-0.58-0.104-0.981c-0.068-0.401-0.213-0.792-0.431-1.171
			s-0.545-0.7-0.981-0.964c-0.436-0.264-1.032-0.396-1.79-0.396c-1.033,0-1.865,0.333-2.496,0.999
			c-0.632,0.666-0.947,1.504-0.947,2.514v10.364h-4.545V72.386h4.338v1.722c0.574-0.665,1.24-1.193,1.997-1.584
			c0.758-0.39,1.619-0.585,2.583-0.585c1.033,0,1.979,0.189,2.841,0.568c0.86,0.378,1.589,0.906,2.187,1.584
			c0.597,0.677,1.062,1.497,1.395,2.462c0.332,0.964,0.499,2.031,0.499,3.202V80.65z"/>
		<path fill="#3C3C3A" d="M255.372,83.025c0.298,1.103,0.843,1.963,1.635,2.583s1.728,0.93,2.807,0.93
			c0.758,0,1.475-0.166,2.152-0.499c0.677-0.333,1.21-0.855,1.601-1.567h4.855c-0.528,1.814-1.532,3.277-3.013,4.391
			s-3.335,1.67-5.562,1.67c-1.239,0-2.41-0.241-3.512-0.723c-1.102-0.482-2.066-1.142-2.893-1.98
			c-0.826-0.838-1.48-1.818-1.963-2.943c-0.481-1.125-0.723-2.33-0.723-3.616c0-1.285,0.241-2.496,0.723-3.633
			c0.482-1.136,1.137-2.123,1.963-2.961s1.791-1.503,2.893-1.997c1.102-0.493,2.272-0.74,3.512-0.74c1.309,0,2.543,0.247,3.702,0.74
			c1.159,0.494,2.152,1.217,2.979,2.169c0.826,0.953,1.446,2.118,1.859,3.495c0.413,1.378,0.539,2.938,0.379,4.683H255.372z
			 M264.256,79.307c-0.275-1.032-0.81-1.854-1.602-2.462c-0.792-0.607-1.739-0.912-2.841-0.912c-1.033,0-1.94,0.305-2.72,0.912
			c-0.781,0.608-1.332,1.43-1.653,2.462H264.256z"/>
	</g>
	<g>
		<path fill="#3C3C3A" d="M285.605,86.951c-0.391,0.735-0.93,1.366-1.618,1.894c-0.688,0.528-1.51,0.942-2.462,1.24
			c-0.953,0.298-1.992,0.447-3.116,0.447c-1.125,0-2.169-0.144-3.134-0.431c-0.964-0.286-1.813-0.699-2.548-1.239
			c-0.735-0.539-1.338-1.188-1.808-1.945c-0.471-0.758-0.774-1.618-0.913-2.583h4.614c0.16,0.391,0.385,0.712,0.672,0.965
			s0.603,0.465,0.947,0.637c0.344,0.172,0.705,0.293,1.084,0.361c0.379,0.069,0.74,0.104,1.085,0.104
			c0.918,0,1.682-0.132,2.29-0.396c0.607-0.264,0.912-0.659,0.912-1.188c0-0.252-0.046-0.471-0.138-0.654s-0.275-0.345-0.551-0.482
			s-0.654-0.27-1.137-0.396c-0.481-0.126-1.113-0.246-1.894-0.361c-0.804-0.115-1.636-0.27-2.496-0.465
			c-0.861-0.195-1.659-0.487-2.394-0.878s-1.338-0.901-1.808-1.532c-0.471-0.632-0.706-1.44-0.706-2.428
			c0-0.689,0.155-1.378,0.465-2.066s0.774-1.297,1.395-1.825c0.62-0.527,1.406-0.958,2.358-1.291
			c0.953-0.332,2.072-0.499,3.357-0.499c1.01,0,1.951,0.132,2.824,0.396c0.872,0.265,1.646,0.638,2.324,1.119
			c0.677,0.482,1.233,1.067,1.67,1.757c0.436,0.688,0.723,1.445,0.86,2.272h-4.717c-0.138-0.413-0.454-0.764-0.947-1.051
			c-0.494-0.286-1.165-0.431-2.015-0.431c-1.056,0-1.813,0.155-2.272,0.465c-0.459,0.311-0.688,0.626-0.688,0.947
			c0,0.46,0.31,0.792,0.93,0.999c0.62,0.206,1.48,0.401,2.582,0.585c1.103,0.185,2.118,0.396,3.048,0.637
			c0.93,0.241,1.727,0.563,2.393,0.965s1.188,0.918,1.567,1.549c0.379,0.632,0.568,1.43,0.568,2.394
			C286.191,85.414,285.996,86.217,285.605,86.951z"/>
	</g>
</g>
</svg>
