<?xml version="1.0" encoding="utf-8"?>
<!-- Generator: Adobe Illustrator 16.0.0, SVG Export Plug-In . SVG Version: 6.00 Build 0)  -->
<!DOCTYPE svg PUBLIC "-//W3C//DTD SVG 1.1//EN" "http://www.w3.org/Graphics/SVG/1.1/DTD/svg11.dtd">
<svg version="1.1" id="Capa_1" xmlns="http://www.w3.org/2000/svg" xmlns:xlink="http://www.w3.org/1999/xlink" x="0px" y="0px"
	 width="296.793px" height="104.25px" viewBox="0 0 296.793 104.25" enable-background="new 0 0 296.793 104.25"
	 xml:space="preserve">
<rect fill="none" width="296.793" height="104.25"/>
<g>
	<path fill="#FFFFFF" d="M173.797,33.214h-4.89l-7.851-23.897h4.82l5.475,18.422l5.441-18.422h4.82L173.797,33.214z"/>
</g>
<g>
	<path fill="#FFFFFF" d="M198.278,33.214h-4.339V31.32c-0.688,0.735-1.492,1.297-2.41,1.688s-1.928,0.585-3.03,0.585
		c-1.147,0-2.232-0.236-3.254-0.706s-1.917-1.119-2.686-1.945c-0.77-0.827-1.377-1.802-1.825-2.927
		c-0.447-1.125-0.671-2.342-0.671-3.65c0-1.308,0.224-2.531,0.671-3.667c0.448-1.136,1.056-2.118,1.825-2.944
		c0.769-0.827,1.664-1.475,2.686-1.946c1.021-0.47,2.106-0.706,3.254-0.706c1.103,0,2.112,0.195,3.03,0.585s1.722,0.953,2.41,1.687
		V15.48h4.339V33.214z M193.372,22.402c-0.241-0.62-0.568-1.159-0.981-1.619c-0.413-0.458-0.896-0.82-1.446-1.084
		c-0.551-0.264-1.137-0.396-1.756-0.396c-0.62,0-1.205,0.132-1.757,0.396c-0.551,0.264-1.032,0.62-1.446,1.067
		c-0.413,0.448-0.74,0.987-0.98,1.619c-0.241,0.631-0.362,1.303-0.362,2.014c0,0.712,0.121,1.372,0.362,1.98
		c0.24,0.608,0.567,1.136,0.98,1.584c0.414,0.448,0.896,0.798,1.446,1.05c0.552,0.252,1.137,0.378,1.757,0.378
		c0.619,0,1.205-0.132,1.756-0.396c0.551-0.264,1.033-0.62,1.446-1.067s0.74-0.975,0.981-1.584c0.241-0.608,0.361-1.257,0.361-1.945
		C193.733,23.688,193.613,23.021,193.372,22.402z"/>
</g>
<g>
	<path fill="#FFFFFF" d="M228.994,33.214h-4.546V22.85c0-0.252-0.034-0.58-0.104-0.981c-0.068-0.401-0.218-0.792-0.447-1.171
		s-0.563-0.7-0.998-0.964c-0.437-0.264-1.022-0.396-1.757-0.396c-1.032,0-1.865,0.333-2.496,0.999
		c-0.632,0.666-0.947,1.503-0.947,2.514v10.364h-4.579V22.85c0-0.252-0.034-0.58-0.104-0.981c-0.068-0.401-0.213-0.792-0.431-1.171
		s-0.545-0.7-0.981-0.964c-0.436-0.264-1.032-0.396-1.79-0.396c-1.011,0-1.831,0.333-2.462,0.999
		c-0.632,0.666-0.947,1.503-0.947,2.514v10.364h-4.579V15.48h4.373v1.722c0.551-0.666,1.21-1.193,1.979-1.584
		c0.769-0.39,1.636-0.585,2.6-0.585c1.102,0,2.105,0.218,3.013,0.654s1.67,1.056,2.29,1.859c0.643-0.78,1.417-1.395,2.324-1.842
		s1.934-0.671,3.082-0.671c1.193,0,2.255,0.189,3.185,0.568c0.93,0.379,1.716,0.913,2.359,1.601c0.643,0.689,1.13,1.51,1.463,2.462
		s0.5,2.014,0.5,3.185V33.214z"/>
</g>
<g>
	<path fill="#FFFFFF" d="M243.662,15.739c1.079,0.471,2.026,1.125,2.841,1.963c0.814,0.838,1.458,1.825,1.929,2.961
		c0.47,1.136,0.706,2.37,0.706,3.701c0,1.332-0.236,2.56-0.706,3.685c-0.471,1.125-1.114,2.101-1.929,2.927
		c-0.814,0.827-1.762,1.476-2.841,1.946s-2.238,0.706-3.478,0.706s-2.399-0.235-3.478-0.706c-1.079-0.47-2.021-1.119-2.823-1.946
		c-0.805-0.826-1.441-1.802-1.911-2.927c-0.471-1.125-0.706-2.353-0.706-3.685c0-1.331,0.235-2.565,0.706-3.701
		c0.47-1.137,1.106-2.123,1.911-2.961c0.803-0.838,1.744-1.492,2.823-1.963c1.078-0.47,2.238-0.706,3.478-0.706
		S242.583,15.269,243.662,15.739z M241.872,29.099c0.527-0.241,0.992-0.585,1.395-1.033c0.401-0.447,0.717-0.981,0.946-1.601
		c0.229-0.62,0.345-1.309,0.345-2.066s-0.115-1.458-0.345-2.101c-0.229-0.642-0.545-1.193-0.946-1.653
		c-0.402-0.459-0.867-0.814-1.395-1.067c-0.528-0.252-1.091-0.378-1.688-0.378s-1.165,0.126-1.704,0.378
		c-0.54,0.253-1.005,0.608-1.395,1.067c-0.391,0.459-0.701,1.011-0.93,1.653c-0.23,0.643-0.345,1.343-0.345,2.101
		s0.114,1.446,0.345,2.066c0.229,0.62,0.539,1.154,0.93,1.601c0.39,0.448,0.854,0.792,1.395,1.033
		c0.539,0.241,1.107,0.361,1.704,0.361S241.344,29.34,241.872,29.099z"/>
	<path fill="#FFFFFF" d="M265.975,30.046c-0.391,0.735-0.93,1.366-1.618,1.894c-0.688,0.528-1.51,0.941-2.462,1.239
		c-0.953,0.298-1.992,0.448-3.116,0.448c-1.125,0-2.169-0.144-3.134-0.43c-0.964-0.287-1.813-0.7-2.548-1.24
		c-0.735-0.539-1.338-1.188-1.808-1.945c-0.471-0.758-0.774-1.619-0.913-2.583h4.614c0.16,0.391,0.385,0.711,0.672,0.964
		c0.287,0.253,0.603,0.465,0.947,0.637c0.344,0.172,0.705,0.292,1.084,0.361s0.74,0.104,1.085,0.104c0.918,0,1.682-0.132,2.29-0.396
		c0.607-0.264,0.912-0.66,0.912-1.188c0-0.252-0.046-0.47-0.138-0.654c-0.092-0.184-0.275-0.344-0.551-0.482
		s-0.654-0.27-1.137-0.396c-0.481-0.126-1.113-0.247-1.894-0.362c-0.804-0.114-1.636-0.27-2.496-0.465
		c-0.861-0.194-1.659-0.487-2.394-0.878c-0.734-0.39-1.338-0.9-1.808-1.532c-0.471-0.631-0.706-1.44-0.706-2.428
		c0-0.688,0.155-1.377,0.465-2.066c0.31-0.688,0.774-1.296,1.395-1.825c0.62-0.528,1.406-0.958,2.358-1.292
		c0.953-0.333,2.072-0.499,3.357-0.499c1.01,0,1.951,0.132,2.824,0.396c0.872,0.264,1.646,0.637,2.324,1.119
		c0.677,0.482,1.233,1.067,1.67,1.756c0.436,0.688,0.723,1.446,0.86,2.272h-4.717c-0.138-0.413-0.454-0.763-0.947-1.05
		c-0.494-0.287-1.165-0.43-2.015-0.43c-1.056,0-1.813,0.155-2.272,0.465s-0.688,0.625-0.688,0.947c0,0.459,0.31,0.792,0.93,0.999
		s1.48,0.402,2.582,0.585c1.103,0.184,2.118,0.396,3.048,0.637c0.93,0.241,1.727,0.563,2.393,0.964
		c0.666,0.402,1.188,0.918,1.567,1.55s0.568,1.429,0.568,2.393C266.561,28.508,266.365,29.312,265.975,30.046z"/>
</g>
<g>
	<path fill="#FFFFFF" d="M201.653,57.851c-0.344,0.861-0.844,1.597-1.498,2.204c-0.654,0.608-1.446,1.079-2.376,1.412
		s-1.968,0.499-3.116,0.499h-11.638V38.069h11.019c2.41,0,4.212,0.574,5.406,1.722c1.193,1.148,1.79,2.732,1.79,4.752
		c0,1.01-0.206,1.91-0.62,2.702c-0.413,0.792-0.987,1.452-1.722,1.98c1.033,0.528,1.837,1.269,2.411,2.221
		c0.573,0.953,0.86,2.118,0.86,3.495C202.17,56.021,201.998,56.99,201.653,57.851z M187.57,42.201v5.269h6.474
		c0.78,0,1.44-0.241,1.979-0.724c0.539-0.481,0.81-1.124,0.81-1.928s-0.247-1.44-0.74-1.912c-0.494-0.47-1.177-0.706-2.049-0.706
		H187.57z M196.609,52.445c-0.608-0.539-1.498-0.81-2.669-0.81h-6.37V57.8h6.474c0.436,0,0.86-0.046,1.273-0.138
		s0.786-0.259,1.119-0.5s0.597-0.551,0.792-0.93s0.293-0.866,0.293-1.463C197.521,53.76,197.217,52.984,196.609,52.445z"/>
</g>
<g>
	<path fill="#FFFFFF" d="M220.006,61.966h-4.339v-1.618c-0.551,0.643-1.205,1.142-1.962,1.498c-0.758,0.355-1.607,0.533-2.549,0.533
		c-1.056,0-2.014-0.189-2.875-0.568c-0.86-0.379-1.596-0.906-2.204-1.584c-0.608-0.677-1.079-1.491-1.411-2.444
		c-0.333-0.952-0.499-2.015-0.499-3.186V44.232h4.545v10.364c0,0.253,0.034,0.574,0.104,0.965c0.068,0.391,0.218,0.774,0.447,1.153
		s0.563,0.7,0.999,0.964c0.436,0.265,1.021,0.396,1.756,0.396c1.033,0,1.864-0.333,2.496-0.999c0.631-0.665,0.947-1.492,0.947-2.479
		V44.232h4.545V61.966z"/>
	<path fill="#FFFFFF" d="M227.1,54.872c0.298,1.103,0.843,1.963,1.635,2.583s1.728,0.93,2.807,0.93c0.758,0,1.475-0.166,2.152-0.499
		c0.677-0.333,1.21-0.855,1.601-1.567h4.855c-0.528,1.814-1.532,3.277-3.013,4.391s-3.335,1.67-5.562,1.67
		c-1.239,0-2.41-0.241-3.512-0.723c-1.102-0.482-2.066-1.142-2.893-1.98c-0.826-0.838-1.48-1.818-1.963-2.943
		c-0.481-1.125-0.723-2.33-0.723-3.616c0-1.285,0.241-2.496,0.723-3.633c0.482-1.136,1.137-2.123,1.963-2.961
		s1.791-1.503,2.893-1.997c1.102-0.493,2.272-0.74,3.512-0.74c1.309,0,2.543,0.247,3.702,0.74c1.159,0.494,2.152,1.217,2.979,2.169
		c0.826,0.953,1.446,2.118,1.859,3.495c0.413,1.378,0.539,2.938,0.379,4.683H227.1z M235.983,51.153
		c-0.275-1.032-0.81-1.854-1.602-2.462c-0.792-0.607-1.739-0.912-2.841-0.912c-1.033,0-1.94,0.305-2.72,0.912
		c-0.781,0.608-1.332,1.43-1.653,2.462H235.983z"/>
</g>
<g>
	<path fill="#FFFFFF" d="M258.813,61.966h-4.545V51.602c0-0.253-0.034-0.58-0.104-0.981c-0.068-0.401-0.213-0.792-0.431-1.171
		s-0.545-0.7-0.981-0.964c-0.436-0.264-1.032-0.396-1.79-0.396c-1.033,0-1.865,0.333-2.496,0.999
		c-0.632,0.666-0.947,1.504-0.947,2.514v10.364h-4.545V44.232h4.338v1.722c0.574-0.665,1.24-1.193,1.997-1.584
		c0.758-0.39,1.619-0.585,2.583-0.585c1.033,0,1.979,0.189,2.841,0.568c0.86,0.378,1.589,0.906,2.187,1.584
		c0.597,0.677,1.062,1.497,1.395,2.462c0.332,0.964,0.499,2.031,0.499,3.202V61.966z"/>
	<path fill="#FFFFFF" d="M273.551,44.491c1.079,0.471,2.026,1.125,2.841,1.962c0.814,0.839,1.458,1.825,1.929,2.962
		c0.47,1.136,0.706,2.37,0.706,3.701c0,1.332-0.236,2.561-0.706,3.685c-0.471,1.125-1.114,2.101-1.929,2.927
		s-1.762,1.476-2.841,1.945c-1.079,0.471-2.238,0.706-3.478,0.706s-2.399-0.235-3.478-0.706c-1.079-0.47-2.021-1.119-2.823-1.945
		c-0.805-0.826-1.441-1.802-1.911-2.927c-0.471-1.124-0.706-2.353-0.706-3.685c0-1.331,0.235-2.565,0.706-3.701
		c0.47-1.137,1.106-2.123,1.911-2.962c0.803-0.837,1.744-1.491,2.823-1.962c1.078-0.471,2.238-0.706,3.478-0.706
		S272.472,44.021,273.551,44.491z M271.761,57.851c0.527-0.24,0.992-0.585,1.395-1.032c0.401-0.448,0.717-0.981,0.946-1.602
		s0.345-1.309,0.345-2.066c0-0.757-0.115-1.457-0.345-2.1s-0.545-1.193-0.946-1.653c-0.402-0.459-0.867-0.814-1.395-1.067
		c-0.528-0.252-1.091-0.379-1.688-0.379s-1.165,0.127-1.704,0.379c-0.54,0.253-1.005,0.608-1.395,1.067
		c-0.391,0.46-0.701,1.011-0.93,1.653c-0.23,0.643-0.345,1.343-0.345,2.1c0,0.758,0.114,1.446,0.345,2.066
		c0.229,0.62,0.539,1.153,0.93,1.602c0.39,0.447,0.854,0.792,1.395,1.032c0.539,0.241,1.107,0.362,1.704,0.362
		S271.232,58.092,271.761,57.851z"/>
</g>
<g>
	<path fill="#FFFFFF" d="M295.794,58.798c-0.391,0.735-0.93,1.366-1.618,1.894c-0.688,0.528-1.51,0.942-2.462,1.24
		c-0.953,0.298-1.992,0.447-3.116,0.447c-1.125,0-2.169-0.144-3.134-0.431c-0.964-0.286-1.813-0.699-2.548-1.239
		c-0.735-0.539-1.338-1.188-1.808-1.945c-0.471-0.758-0.774-1.618-0.913-2.583h4.614c0.16,0.391,0.385,0.712,0.672,0.965
		s0.603,0.465,0.947,0.637c0.344,0.172,0.705,0.293,1.084,0.361c0.379,0.069,0.74,0.104,1.085,0.104c0.918,0,1.682-0.132,2.29-0.396
		c0.607-0.264,0.912-0.659,0.912-1.188c0-0.252-0.046-0.471-0.138-0.654s-0.275-0.345-0.551-0.482s-0.654-0.27-1.137-0.396
		c-0.481-0.126-1.113-0.246-1.894-0.361c-0.804-0.115-1.636-0.27-2.496-0.465c-0.861-0.195-1.659-0.487-2.394-0.878
		s-1.338-0.901-1.808-1.532c-0.471-0.632-0.706-1.44-0.706-2.428c0-0.689,0.155-1.378,0.465-2.066s0.774-1.297,1.395-1.825
		c0.62-0.527,1.406-0.958,2.358-1.291c0.953-0.333,2.072-0.499,3.357-0.499c1.01,0,1.951,0.133,2.824,0.396
		c0.872,0.265,1.646,0.638,2.324,1.119c0.677,0.482,1.233,1.067,1.67,1.757c0.436,0.688,0.723,1.445,0.86,2.272h-4.717
		c-0.138-0.413-0.454-0.764-0.947-1.051c-0.494-0.286-1.165-0.431-2.015-0.431c-1.056,0-1.813,0.155-2.272,0.465
		c-0.459,0.311-0.688,0.626-0.688,0.947c0,0.46,0.31,0.792,0.93,0.999c0.62,0.206,1.48,0.401,2.582,0.585
		c1.103,0.185,2.118,0.396,3.048,0.637c0.93,0.241,1.727,0.563,2.393,0.965s1.188,0.918,1.567,1.549
		c0.379,0.632,0.568,1.43,0.568,2.394C296.38,57.261,296.185,58.063,295.794,58.798z"/>
</g>
<g>
	<path fill="#FFFFFF" d="M207.335,85.932l-1.618,4.786h-4.82l8.332-23.896h5.751l8.333,23.896h-4.821l-1.618-4.786H207.335z
		 M212.087,71.883l-3.34,9.813h6.68L212.087,71.883z"/>
	<path fill="#FFFFFF" d="M229.751,71.057h-4.546v-4.235h4.546V71.057z M229.751,90.718h-4.546V72.984h4.546V90.718z"/>
	<path fill="#FFFFFF" d="M249.24,81.249h-4.545v-0.896c0-0.253-0.034-0.58-0.104-0.981c-0.068-0.401-0.213-0.792-0.431-1.171
		s-0.545-0.7-0.981-0.964c-0.436-0.264-1.032-0.396-1.79-0.396c-1.033,0-1.865,0.333-2.496,0.999
		c-0.632,0.666-0.947,1.504-0.947,2.514v10.364h-4.545V72.984h4.338v1.722c0.574-0.665,1.24-1.193,1.997-1.584
		c0.758-0.39,1.619-0.585,2.583-0.585c1.033,0,1.979,0.189,2.841,0.568c0.86,0.378,1.589,0.906,2.187,1.584
		c0.597,0.677,1.062,1.497,1.395,2.462c0.332,0.964,0.499,2.031,0.499,3.202V81.249z"/>
	<path fill="#FFFFFF" d="M255.266,83.624c0.298,1.103,0.843,1.963,1.635,2.583s1.728,0.93,2.807,0.93
		c0.758,0,1.475-0.166,2.152-0.499c0.677-0.333,1.21-0.855,1.601-1.567h4.855c-0.528,1.814-1.532,3.277-3.013,4.391
		s-3.335,1.67-5.562,1.67c-1.239,0-2.41-0.241-3.512-0.723c-1.102-0.482-2.066-1.142-2.893-1.98
		c-0.826-0.838-1.48-1.818-1.963-2.943c-0.481-1.125-0.723-2.33-0.723-3.616c0-1.285,0.241-2.496,0.723-3.633
		c0.482-1.136,1.137-2.123,1.963-2.961s1.791-1.503,2.893-1.997c1.102-0.493,2.272-0.74,3.512-0.74c1.309,0,2.543,0.247,3.702,0.74
		c1.159,0.494,2.152,1.217,2.979,2.169c0.826,0.953,1.446,2.118,1.859,3.495c0.413,1.378,0.539,2.938,0.379,4.683H255.266z
		 M264.149,79.905c-0.275-1.032-0.81-1.854-1.602-2.462c-0.792-0.607-1.739-0.912-2.841-0.912c-1.033,0-1.94,0.305-2.72,0.912
		c-0.781,0.608-1.332,1.43-1.653,2.462H264.149z"/>
</g>
<g>
	<path fill="#FFFFFF" d="M285.465,87.55c-0.391,0.735-0.93,1.366-1.618,1.894c-0.688,0.528-1.51,0.942-2.462,1.24
		c-0.953,0.298-1.992,0.447-3.116,0.447c-1.125,0-2.169-0.144-3.134-0.431c-0.964-0.286-1.813-0.699-2.548-1.239
		c-0.735-0.539-1.338-1.188-1.808-1.945c-0.471-0.758-0.774-1.618-0.913-2.583h4.614c0.16,0.391,0.385,0.712,0.672,0.965
		s0.603,0.465,0.947,0.637c0.344,0.172,0.705,0.293,1.084,0.361c0.379,0.069,0.74,0.104,1.085,0.104c0.918,0,1.682-0.132,2.29-0.396
		c0.607-0.264,0.912-0.659,0.912-1.188c0-0.252-0.046-0.471-0.138-0.654s-0.275-0.345-0.551-0.482s-0.654-0.27-1.137-0.396
		c-0.481-0.126-1.113-0.246-1.894-0.361c-0.804-0.115-1.636-0.27-2.496-0.465c-0.861-0.195-1.659-0.487-2.394-0.878
		s-1.338-0.901-1.808-1.532c-0.471-0.632-0.706-1.44-0.706-2.428c0-0.689,0.155-1.378,0.465-2.066s0.774-1.297,1.395-1.825
		c0.62-0.527,1.406-0.958,2.358-1.291c0.953-0.332,2.072-0.499,3.357-0.499c1.01,0,1.951,0.132,2.824,0.396
		c0.872,0.265,1.646,0.638,2.324,1.119c0.677,0.482,1.233,1.067,1.67,1.757c0.436,0.688,0.723,1.445,0.86,2.272h-4.717
		c-0.138-0.413-0.454-0.764-0.947-1.051c-0.494-0.286-1.165-0.431-2.015-0.431c-1.056,0-1.813,0.155-2.272,0.465
		c-0.459,0.311-0.688,0.626-0.688,0.947c0,0.46,0.31,0.792,0.93,0.999c0.62,0.206,1.48,0.401,2.582,0.585
		c1.103,0.185,2.118,0.396,3.048,0.637c0.93,0.241,1.727,0.563,2.393,0.965s1.188,0.918,1.567,1.549
		c0.379,0.632,0.568,1.43,0.568,2.394C286.051,86.013,285.855,86.815,285.465,87.55z"/>
</g>
<g>
	<defs>
		<rect id="SVGID_1_" width="190.738" height="104.25"/>
	</defs>
	<clipPath id="SVGID_2_">
		<use xlink:href="#SVGID_1_"  overflow="visible"/>
	</clipPath>
	<g clip-path="url(#SVGID_2_)">
		<defs>
			<rect id="SVGID_3_" x="-88" y="-196.5" width="480" height="480"/>
		</defs>
		<clipPath id="SVGID_4_">
			<use xlink:href="#SVGID_3_"  overflow="visible"/>
		</clipPath>
		<path clip-path="url(#SVGID_4_)" fill="#FFFFFF" d="M188.221,81.96l-36.269-70.067c-3.128-6.222-9.541-10.48-16.974-10.48h-0.009
			h-0.011c-7.431,0-13.842,4.258-16.972,10.48l-25.53,49.319c-2.855-5.07-7.396-9.056-12.881-11.199
			c6.124-4.426,10.11-11.643,10.11-19.785c0-9.435-5.358-17.608-13.195-21.657c-6.901-3.633-14.784-5.682-23.138-5.682H15.173
			c-7.854,0-14.195,6.347-14.195,14.185v71.055c0,7.831,6.341,14.185,14.195,14.185H28.96h27.503c7.96,0,15.535-1.647,22.411-4.591
			l2.621-1.267c0.147-0.07,0.289-0.147,0.43-0.221c2.479,4.113,6.977,6.879,12.147,6.879c5.742,0,10.697-3.409,12.923-8.328
			c1.113-2.598,3.618-4.434,6.582-4.578h42.784c2.966,0.145,5.468,1.98,6.584,4.578c2.225,4.919,7.181,8.328,12.923,8.328
			c7.848,0,14.187-6.36,14.187-14.174C190.055,86.396,189.399,84.012,188.221,81.96"/>
	</g>
</g>
</svg>
